<?xml version="1.0" encoding="UTF-8" standalone="no"?>
<svg
   xmlns:dc="http://purl.org/dc/elements/1.1/"
   xmlns:cc="http://creativecommons.org/ns#"
   xmlns:rdf="http://www.w3.org/1999/02/22-rdf-syntax-ns#"
   xmlns:svg="http://www.w3.org/2000/svg"
   xmlns="http://www.w3.org/2000/svg"
   xmlns:sodipodi="http://sodipodi.sourceforge.net/DTD/sodipodi-0.dtd"
   xmlns:inkscape="http://www.inkscape.org/namespaces/inkscape"
   id="svg2932"
    viewBox="0 0 108 108"
   version="1.1">
  <defs
     id="defs18">
    <filter
       style="color-interpolation-filters:sRGB;"
       id="filter4571">
      <feColorMatrix
         type="hueRotate"
         values="360"
         result="color1"
         id="feColorMatrix4573" />
      <feColorMatrix
         type="saturate"
         values="0.8"
         result="fbSourceGraphic"
         id="feColorMatrix4575" />
      <feColorMatrix
         result="fbSourceGraphicAlpha"
         in="fbSourceGraphic"
         values="0 0 0 -1 0 0 0 0 -1 0 0 0 0 -1 0 0 0 0 1 0"
         id="feColorMatrix4607" />
      <feColorMatrix
         id="feColorMatrix4609"
         type="hueRotate"
         values="360"
         result="color1"
         in="fbSourceGraphic" />
      <feColorMatrix
         id="feColorMatrix4611"
         type="saturate"
         values="0.8"
         result="color2" />
    </filter>
    <filter
       style="color-interpolation-filters:sRGB;"
       id="filter4577">
      <feColorMatrix
         type="hueRotate"
         values="360"
         result="color1"
         id="feColorMatrix4579" />
      <feColorMatrix
         type="saturate"
         values="0.8"
         result="color2"
         id="feColorMatrix4581" />
    </filter>
  </defs>
  <g
     id="g4201"
      transform="translate(26,22)">
    <g
       transform="matrix(1.151959,0,0,1.151959,-10.522781,0.52600754)"
       id="g4004"
       style="filter:url(#filter4577)">
      <path
         style="fill:#800000"
         d="m 14,6 0,43 c 0,3 3,5 5,5 L 54,54 54,1 19,1 c -3,0 -5,2 -5,5 z"
         id="path3978" />
      <path
         style="fill:#dddddd"
         d="m 16,48 c 0,2 1,4 4,4 l 32,0 0,-8 -32,0 c -3,0 -4,2 -4,4 z"
         id="path3980" />
      <path
         style="fill:#d40000"
         d="M 23,44 54,44 54,1 23,1 23,44 Z"
         id="path3982" />
    </g>
    <path
       id="path3989"
       d="m 11.363333,8.5698526 c -2.3274671,0 -4.2578808,0.6861125 -5.8452918,1.7526874 l 0,12.669299 c 1.6640647,-1.716542 3.6342947,-2.902396 5.8452918,-2.902396 l 40.318565,0 0,-11.5195904 -40.318565,0 z"
       style="fill:#483737;filter:url(#filter4571)" />
  </g>
</svg>
